<svg width="59" height="46" viewBox="0 0 59 46" fill="none" xmlns="http://www.w3.org/2000/svg">
<rect width="59" height="46" fill="#009CC2"/>
<path fill-rule="evenodd" clip-rule="evenodd" d="M37.4817 27.0825C36.8054 26.8851 36.1978 26.4243 35.6704 25.7002C35.1431 24.9762 34.8794 24.1534 34.8794 23.2539C34.8794 22.4202 35.1316 21.6631 35.6246 20.9829C35.8997 20.5991 36.3354 20.1713 36.9315 19.6885C36.5417 19.2277 36.1404 18.8548 35.7392 18.5916C35.0284 18.1197 34.2145 17.8785 33.2973 17.8785C32.7356 17.8785 32.0707 18.01 31.3141 18.2514C30.5575 18.5037 30.0071 18.6243 29.6747 18.6243C29.411 18.6243 28.8837 18.5147 28.0927 18.2953C27.2901 18.0759 26.6253 17.9662 26.0635 17.9662C24.7451 17.9662 23.6675 18.4928 22.8077 19.5459C21.9479 20.61 21.5122 21.9703 21.5122 23.6488C21.5122 25.4479 22.0854 27.28 23.1975 29.1668C24.3324 31.0537 25.4673 32.0082 26.6482 32.0082C27.0265 32.0082 27.5309 31.8875 28.1614 31.6352C28.7805 31.3939 29.3308 31.2731 29.7893 31.2731C30.2593 31.2731 30.844 31.3828 31.5204 31.6242C32.2082 31.8546 32.7356 31.9752 33.1254 31.9752C34.0998 31.9752 35.0858 31.2621 36.0717 29.8251C36.7366 28.8706 37.1952 27.9491 37.4817 27.0825ZM33.1712 14.2144C33.1712 14.1376 33.1598 14.0717 33.1598 13.995C33.1483 13.9291 33.1254 13.8523 33.1024 13.7536C31.7726 14.0497 30.8096 14.5874 30.2364 15.3773C29.6632 16.1671 29.3652 17.1105 29.3422 18.1965C29.881 18.1526 30.2708 18.0868 30.5345 18.01C30.9472 17.8785 31.3599 17.6151 31.7726 17.2202C32.2541 16.7594 32.6095 16.2548 32.8388 15.7063C33.0566 15.1688 33.1712 14.6642 33.1712 14.2144Z" fill="white"/>
</svg>
